<?xml version="1.0" encoding="UTF-8" standalone="no"?>
<!-- Created with Inkscape (http://www.inkscape.org/) -->

<svg
   xmlns:dc="http://purl.org/dc/elements/1.1/"
   xmlns:cc="http://creativecommons.org/ns#"
   xmlns:rdf="http://www.w3.org/1999/02/22-rdf-syntax-ns#"
   xmlns:svg="http://www.w3.org/2000/svg"
   xmlns="http://www.w3.org/2000/svg"
   xmlns:sodipodi="http://sodipodi.sourceforge.net/DTD/sodipodi-0.dtd"
   xmlns:inkscape="http://www.inkscape.org/namespaces/inkscape"
   width="400"
   height="400"
   viewBox="0 0 105.83333 105.83334"
   version="1.1"
   id="svg8"
   inkscape:version="0.92.3 (2405546, 2018-03-11)"
   sodipodi:docname="closex.svg">
  <defs
     id="defs2" />
  <sodipodi:namedview
     id="base"
     pagecolor="#ffffff"
     bordercolor="#666666"
     borderopacity="1.0"
     inkscape:pageopacity="0.0"
     inkscape:pageshadow="2"
     inkscape:zoom="0.98994949"
     inkscape:cx="184.95091"
     inkscape:cy="177.90579"
     inkscape:document-units="mm"
     inkscape:current-layer="layer1"
     showgrid="false"
     units="px"
     inkscape:window-width="1920"
     inkscape:window-height="1018"
     inkscape:window-x="-8"
     inkscape:window-y="-8"
     inkscape:window-maximized="1" />
  <metadata
     id="metadata5">
    <rdf:RDF>
      <cc:Work
         rdf:about="">
        <dc:format>image/svg+xml</dc:format>
        <dc:type
           rdf:resource="http://purl.org/dc/dcmitype/StillImage" />
        <dc:title></dc:title>
      </cc:Work>
    </rdf:RDF>
  </metadata>
  <g
     inkscape:label="Layer 1"
     inkscape:groupmode="layer"
     id="layer1"
     transform="translate(0,-191.16665)">
    <path
       style="opacity:0.4;fill:#000000;fill-opacity:1;stroke:#000000;stroke-width:0;stroke-linejoin:round;stroke-miterlimit:4;stroke-dasharray:none;stroke-opacity:1"
       d="M 97.857422 78.806641 C 92.982765 78.920438 88.151923 80.902197 84.503906 84.724609 L 79.458984 90.009766 C 72.162951 97.65459 72.445019 109.68248 80.089844 116.97852 L 167.08008 200 L 80.089844 283.02148 C 72.445019 290.31752 72.162951 302.34541 79.458984 309.99023 L 84.503906 315.27539 C 91.79994 322.92022 103.82783 323.20228 111.47266 315.90625 L 200 231.41797 L 288.52734 315.90625 C 296.17217 323.20228 308.20006 322.92022 315.49609 315.27539 L 320.54102 309.99023 C 327.83705 302.34541 327.55498 290.31752 319.91016 283.02148 L 232.91992 200 L 319.91016 116.97852 C 327.55498 109.68248 327.83705 97.65459 320.54102 90.009766 L 315.49609 84.724609 C 308.20006 77.079785 296.17217 76.797716 288.52734 84.09375 L 200 168.58203 L 111.47266 84.09375 C 107.65024 80.445733 102.73208 78.692843 97.857422 78.806641 z "
       transform="matrix(0.26458333,0,0,0.26458333,0,191.16665)"
       id="rect815" />
  </g>
</svg>
